REM Generated by IcecastMetadataRecorder
REM 2020-07-29T21:16:11.222Z
TITLE "isics-all"
FILE "isics-all.mp3" WAVE
  TRACK 1 AUDIO
    TITLE "2020-07-29T21:16:11.254Z TO:7300 Department of Transportation - District 1 Highway Helper - Des Moines Area FROM:14948"
    INDEX 01 00:00:00
  TRACK 2 AUDIO
    TITLE "2020-07-29T21:16:28.726Z TO:41 Polk County - West Des Moines Fire Paging FROM:1009"
    INDEX 01 00:17:37
  TRACK 3 AUDIO
    TITLE "2020-07-29T21:16:34.326Z TO:175 Polk County - Westcom Fire 1 FROM:1009"
    INDEX 01 00:23:08
  TRACK 4 AUDIO
    TITLE "2020-07-29T21:16:40.630Z TO:1102 Polk County - Westcom Law Enforcement 2 FROM:1006"
    INDEX 01 00:29:30
  TRACK 5 AUDIO
    TITLE "2020-07-29T21:16:44.822Z TO:24631 Dallas County Fire/EMS Operations FROM:2520301"
    INDEX 01 00:33:44
  TRACK 6 AUDIO
    TITLE "2020-07-29T21:16:48.342Z TO:7300 Department of Transportation - District 1 Highway Helper - Des Moines Area FROM:14966"
    INDEX 01 00:37:09
  TRACK 7 AUDIO
    TITLE "2020-07-29T21:16:50.422Z TO:24631 Dallas County Fire/EMS Operations FROM:2559981"
    INDEX 01 00:39:15
  TRACK 8 AUDIO
    TITLE "2020-07-29T21:16:52.534Z TO:1102 Polk County - Westcom Law Enforcement 2 FROM:1441"
    INDEX 01 00:41:23
  TRACK 9 AUDIO
    TITLE "2020-07-29T21:16:54.646Z TO:24631 Dallas County Fire/EMS Operations FROM:UNKNOWN"
    INDEX 01 00:43:31
  TRACK 10 AUDIO
    TITLE "2020-07-29T21:16:58.134Z TO:18501 Boone County Law 1 FROM:800408"
    INDEX 01 00:46:67
  TRACK 11 AUDIO
    TITLE "2020-07-29T21:17:05.142Z TO:41 Polk County - West Des Moines Fire Paging FROM:1009"
    INDEX 01 00:53:68
  TRACK 12 AUDIO
    TITLE "2020-07-29T21:17:13.526Z TO:175 Polk County - Westcom Fire 1 FROM:1009"
    INDEX 01 01:02:22
  TRACK 13 AUDIO
    TITLE "2020-07-29T21:17:21.238Z TO:24631 Dallas County Fire/EMS Operations FROM:2559981"
    INDEX 01 01:10:01
  TRACK 14 AUDIO
    TITLE "2020-07-29T21:17:23.350Z TO:24631 Dallas County Fire/EMS Operations FROM:UNKNOWN"
    INDEX 01 01:12:09
  TRACK 15 AUDIO
    TITLE "2020-07-29T21:17:24.726Z TO:1102 Polk County - Westcom Law Enforcement 2 FROM:1006"
    INDEX 01 01:13:37
  TRACK 16 AUDIO
    TITLE "2020-07-29T21:17:34.550Z TO:1102 Polk County - Westcom Law Enforcement 2 FROM:1441"
    INDEX 01 01:23:24
  TRACK 17 AUDIO
    TITLE "2020-07-29T21:17:38.038Z TO:1102 Polk County - Westcom Law Enforcement 2 FROM:1006"
    INDEX 01 01:26:60
  TRACK 18 AUDIO
    TITLE "2020-07-29T21:17:49.238Z TO:1102 Polk County - Westcom Law Enforcement 2 FROM:1441"
    INDEX 01 01:38:01
  TRACK 19 AUDIO
    TITLE "2020-07-29T21:17:51.350Z TO:1102 Polk County - Westcom Law Enforcement 2 FROM:1441"
    INDEX 01 01:40:09
  TRACK 20 AUDIO
    TITLE "2020-07-29T21:17:53.430Z TO:1102 Polk County - Westcom Law Enforcement 2 FROM:1006"
    INDEX 01 01:42:15
  TRACK 21 AUDIO
    TITLE "2020-07-29T21:17:54.838Z TO:1102 Polk County - Westcom Law Enforcement 2 FROM:1441"
    INDEX 01 01:43:46
  TRACK 22 AUDIO
    TITLE "2020-07-29T21:17:59.734Z TO:7300 Department of Transportation - District 1 Highway Helper - Des Moines Area FROM:14949"
    INDEX 01 01:48:38
  TRACK 23 AUDIO
    TITLE "2020-07-29T21:18:03.926Z TO:1102 Polk County - Westcom Law Enforcement 2 FROM:1006"
    INDEX 01 01:52:52
  TRACK 24 AUDIO
    TITLE "2020-07-29T21:18:06.038Z TO:1102 Polk County - Westcom Law Enforcement 2 FROM:1441"
    INDEX 01 01:54:60
  TRACK 25 AUDIO
    TITLE "2020-07-29T21:18:08.150Z TO:1101 Polk County - Westcom Law Enforcement 1 FROM:1489"
    INDEX 01 01:56:69
  TRACK 26 AUDIO
    TITLE "2020-07-29T21:18:10.230Z TO:1101 Polk County - Westcom Law Enforcement 1 FROM:103"
    INDEX 01 01:59:01
  TRACK 27 AUDIO
    TITLE "2020-07-29T21:18:12.342Z TO:1101 Polk County - Westcom Law Enforcement 1 FROM:1492"
    INDEX 01 02:01:09
  TRACK 28 AUDIO
    TITLE "2020-07-29T21:18:14.422Z TO:1101 Polk County - Westcom Law Enforcement 1 FROM:103"
    INDEX 01 02:03:15
  TRACK 29 AUDIO
    TITLE "2020-07-29T21:18:17.238Z TO:1101 Polk County - Westcom Law Enforcement 1 FROM:1492"
    INDEX 01 02:06:01
  TRACK 30 AUDIO
    TITLE "2020-07-29T21:18:22.838Z TO:1101 Polk County - Westcom Law Enforcement 1 FROM:UNKNOWN"
    INDEX 01 02:11:46
  TRACK 31 AUDIO
    TITLE "2020-07-29T21:18:24.246Z TO:1102 Polk County - Westcom Law Enforcement 2 FROM:1364"
    INDEX 01 02:13:02
  TRACK 32 AUDIO
    TITLE "2020-07-29T21:18:28.438Z TO:1102 Polk County - Westcom Law Enforcement 2 FROM:UNKNOWN"
    INDEX 01 02:17:16
  TRACK 33 AUDIO
    TITLE "2020-07-29T21:18:29.846Z TO:707 Dallas County - Waukee Police Car/Car FROM:8606"
    INDEX 01 02:18:46
  TRACK 34 AUDIO
    TITLE "2020-07-29T21:18:32.630Z TO:1102 Polk County - Westcom Law Enforcement 2 FROM:1364"
    INDEX 01 02:21:30
  TRACK 35 AUDIO
    TITLE "2020-07-29T21:18:39.638Z TO:1102 Polk County - Westcom Law Enforcement 2 FROM:1006"
    INDEX 01 02:28:31
  TRACK 36 AUDIO
    TITLE "2020-07-29T21:18:41.750Z TO:1102 Polk County - Westcom Law Enforcement 2 FROM:1364"
    INDEX 01 02:30:39
  TRACK 37 AUDIO
    TITLE "2020-07-29T21:18:49.430Z TO:1102 Polk County - Westcom Law Enforcement 2 FROM:1006"
    INDEX 01 02:38:15
  TRACK 38 AUDIO
    TITLE "2020-07-29T21:18:51.542Z TO:707 Dallas County - Waukee Police Car/Car FROM:8606"
    INDEX 01 02:40:24
  TRACK 39 AUDIO
    TITLE "2020-07-29T21:18:55.734Z TO:1102 Polk County - Westcom Law Enforcement 2 FROM:1364"
    INDEX 01 02:44:38
  TRACK 40 AUDIO
    TITLE "2020-07-29T21:18:58.550Z TO:91 Polk County - West Des Moines EMS FROM:1933"
    INDEX 01 02:47:24
  TRACK 41 AUDIO
    TITLE "2020-07-29T21:19:02.742Z TO:91 Polk County - West Des Moines EMS FROM:123"
    INDEX 01 02:51:38
  TRACK 42 AUDIO
    TITLE "2020-07-29T21:19:06.230Z TO:91 Polk County - West Des Moines EMS FROM:1933"
    INDEX 01 02:55:01
  TRACK 43 AUDIO
    TITLE "2020-07-29T21:19:10.422Z TO:5002 Department of Public Safety - Area A Law 2A - DPS District #1 FROM:10984"
    INDEX 01 02:59:15
  TRACK 44 AUDIO
    TITLE "2020-07-29T21:19:13.238Z TO:91 Polk County - West Des Moines EMS FROM:123"
    INDEX 01 03:02:01
  TRACK 45 AUDIO
    TITLE "2020-07-29T21:19:15.350Z TO:5002 Department of Public Safety - Area A Law 2A - DPS District #1 FROM:UNKNOWN"
    INDEX 01 03:04:09
  TRACK 46 AUDIO
    TITLE "2020-07-29T21:19:17.430Z TO:P:59908 Warren County Law 1 FROM:9199991"
    INDEX 01 03:06:15
  TRACK 47 AUDIO
    TITLE "2020-07-29T21:19:37.750Z TO:5002 Department of Public Safety - Area A Law 2A - DPS District #1 FROM:10984"
    INDEX 01 03:26:39
  TRACK 48 AUDIO
    TITLE "2020-07-29T21:19:41.942Z TO:5002 Department of Public Safety - Area A Law 2A - DPS District #1 FROM:11498"
    INDEX 01 03:30:53
  TRACK 49 AUDIO
    TITLE "2020-07-29T21:19:52.438Z TO:5002 Department of Public Safety - Area A Law 2A - DPS District #1 FROM:10984"
    INDEX 01 03:41:16
  TRACK 50 AUDIO
    TITLE "2020-07-29T21:19:54.550Z TO:7300 Department of Transportation - District 1 Highway Helper - Des Moines Area FROM:14966"
    INDEX 01 03:43:24
  TRACK 51 AUDIO
    TITLE "2020-07-29T21:19:56.630Z TO:7052 Department of Transportation - District 1 Grimes Maintenance Garage FROM:14950"
    INDEX 01 03:45:30
  TRACK 52 AUDIO
    TITLE "2020-07-29T21:19:58.742Z TO:1101 Polk County - Westcom Law Enforcement 1 FROM:1492"
    INDEX 01 03:47:38
  TRACK 53 AUDIO
    TITLE "2020-07-29T21:20:01.526Z TO:7300 Department of Transportation - District 1 Highway Helper - Des Moines Area FROM:14950"
    INDEX 01 03:50:22
  TRACK 54 AUDIO
    TITLE "2020-07-29T21:20:05.046Z TO:1101 Polk County - Westcom Law Enforcement 1 FROM:1004"
    INDEX 01 03:53:61
  TRACK 55 AUDIO
    TITLE "2020-07-29T21:20:07.126Z TO:7300 Department of Transportation - District 1 Highway Helper - Des Moines Area FROM:14966"
    INDEX 01 03:55:67
  TRACK 56 AUDIO
    TITLE "2020-07-29T21:20:29.526Z TO:7300 Department of Transportation - District 1 Highway Helper - Des Moines Area FROM:14950"
    INDEX 01 04:18:22
  TRACK 57 AUDIO
    TITLE "2020-07-29T21:20:33.750Z TO:7300 Department of Transportation - District 1 Highway Helper - Des Moines Area FROM:14966"
    INDEX 01 04:22:39
  TRACK 58 AUDIO
    TITLE "2020-07-29T21:20:35.830Z TO:18501 Boone County Law 1 FROM:899995"
    INDEX 01 04:24:45
  TRACK 59 AUDIO
    TITLE "2020-07-29T21:20:42.838Z TO:177 Polk County - Westcom Fire 2 FROM:1932"
    INDEX 01 04:31:46
  TRACK 60 AUDIO
    TITLE "2020-07-29T21:20:46.326Z TO:177 Polk County - Westcom Fire 2 FROM:103"
    INDEX 01 04:35:08
  TRACK 61 AUDIO
    TITLE "2020-07-29T21:20:48.438Z TO:177 Polk County - Westcom Fire 2 FROM:1932"
    INDEX 01 04:37:16
  TRACK 62 AUDIO
    TITLE "2020-07-29T21:20:54.742Z TO:52204 Mercy ONE Iowa Mason City Hospital FROM:10779538"
    INDEX 01 04:43:38
  TRACK 63 AUDIO
    TITLE "2020-07-29T21:21:06.646Z TO:177 Polk County - Westcom Fire 2 FROM:103"
    INDEX 01 04:55:31
  TRACK 64 AUDIO
    TITLE "2020-07-29T21:21:08.726Z TO:52204 Mercy ONE Iowa Mason City Hospital FROM:10779530"
    INDEX 01 04:57:37
  TRACK 65 AUDIO
    TITLE "2020-07-29T21:21:10.838Z TO:91 Polk County - West Des Moines EMS FROM:1901"
    INDEX 01 04:59:46
  TRACK 66 AUDIO
    TITLE "2020-07-29T21:21:14.326Z TO:177 Polk County - Westcom Fire 2 FROM:1641"
    INDEX 01 05:03:08
  TRACK 67 AUDIO
    TITLE "2020-07-29T21:21:17.142Z TO:91 Polk County - West Des Moines EMS FROM:123"
    INDEX 01 05:05:68
  TRACK 68 AUDIO
    TITLE "2020-07-29T21:21:19.222Z TO:177 Polk County - Westcom Fire 2 FROM:103"
    INDEX 01 05:08:00
  TRACK 69 AUDIO
    TITLE "2020-07-29T21:21:21.334Z TO:91 Polk County - West Des Moines EMS FROM:1901"
    INDEX 01 05:10:08
  TRACK 70 AUDIO
    TITLE "2020-07-29T21:21:24.150Z TO:91 Polk County - West Des Moines EMS FROM:123"
    INDEX 01 05:12:69
  TRACK 71 AUDIO
    TITLE "2020-07-29T21:21:26.934Z TO:1101 Polk County - Westcom Law Enforcement 1 FROM:5173"
    INDEX 01 05:15:53
  TRACK 72 AUDIO
    TITLE "2020-07-29T21:21:29.046Z TO:7300 Department of Transportation - District 1 Highway Helper - Des Moines Area FROM:14948"
    INDEX 01 05:17:61
  TRACK 73 AUDIO
    TITLE "2020-07-29T21:21:31.126Z TO:1101 Polk County - Westcom Law Enforcement 1 FROM:1004"
    INDEX 01 05:19:67
  TRACK 74 AUDIO
    TITLE "2020-07-29T21:21:33.238Z TO:7300 Department of Transportation - District 1 Highway Helper - Des Moines Area FROM:14966"
    INDEX 01 05:22:01
  TRACK 75 AUDIO
    TITLE "2020-07-29T21:21:36.726Z TO:1101 Polk County - Westcom Law Enforcement 1 FROM:5173"
    INDEX 01 05:25:37
  TRACK 76 AUDIO
    TITLE "2020-07-29T21:21:45.142Z TO:1101 Polk County - Westcom Law Enforcement 1 FROM:UNKNOWN"
    INDEX 01 05:33:68
  TRACK 77 AUDIO
    TITLE "2020-07-29T21:21:47.222Z TO:7300 Department of Transportation - District 1 Highway Helper - Des Moines Area FROM:14948"
    INDEX 01 05:36:00
  TRACK 78 AUDIO
    TITLE "2020-07-29T21:21:51.446Z TO:7300 Department of Transportation - District 1 Highway Helper - Des Moines Area FROM:14948"
    INDEX 01 05:40:17
  TRACK 79 AUDIO
    TITLE "2020-07-29T21:21:59.126Z TO:7300 Department of Transportation - District 1 Highway Helper - Des Moines Area FROM:14966"
    INDEX 01 05:47:67
  TRACK 80 AUDIO
    TITLE "2020-07-29T21:22:01.942Z TO:1101 Polk County - Westcom Law Enforcement 1 FROM:5095"
    INDEX 01 05:50:53
  TRACK 81 AUDIO
    TITLE "2020-07-29T21:22:04.726Z TO:1101 Polk County - Westcom Law Enforcement 1 FROM:1004"
    INDEX 01 05:53:37
  TRACK 82 AUDIO
    TITLE "2020-07-29T21:22:06.838Z TO:1101 Polk County - Westcom Law Enforcement 1 FROM:5095"
    INDEX 01 05:55:46
  TRACK 83 AUDIO
    TITLE "2020-07-29T21:22:15.222Z TO:1101 Polk County - Westcom Law Enforcement 1 FROM:UNKNOWN"
    INDEX 01 06:04:00
  TRACK 84 AUDIO
    TITLE "2020-07-29T21:22:16.630Z TO:7 Polk County - Westcom Law Enforcement 4 FROM:1394"
    INDEX 01 06:05:30
  TRACK 85 AUDIO
    TITLE "2020-07-29T21:22:19.446Z TO:7 Polk County - Westcom Law Enforcement 4 FROM:1452"
    INDEX 01 06:08:17
  TRACK 86 AUDIO
    TITLE "2020-07-29T21:22:21.526Z TO:7 Polk County - Westcom Law Enforcement 4 FROM:1394"
    INDEX 01 06:10:22
  TRACK 87 AUDIO
    TITLE "2020-07-29T21:22:25.750Z TO:7 Polk County - Westcom Law Enforcement 4 FROM:1452"
    INDEX 01 06:14:39
  TRACK 88 AUDIO
    TITLE "2020-07-29T21:22:27.830Z TO:7 Polk County - Westcom Law Enforcement 4 FROM:1452"
    INDEX 01 06:16:45
  TRACK 89 AUDIO
    TITLE "2020-07-29T21:22:29.942Z TO:7 Polk County - Westcom Law Enforcement 4 FROM:1377"
    INDEX 01 06:18:53
  TRACK 90 AUDIO
    TITLE "2020-07-29T21:22:32.022Z TO:49172 Polk County - Des Moines Streets FROM:12770261"
    INDEX 01 06:20:59
  TRACK 91 AUDIO
    TITLE "2020-07-29T21:22:35.542Z TO:49172 Polk County - Des Moines Streets FROM:12770352"
    INDEX 01 06:24:24
  TRACK 92 AUDIO
    TITLE "2020-07-29T21:22:37.622Z TO:7 Polk County - Westcom Law Enforcement 4 FROM:1377"
    INDEX 01 06:26:30
  TRACK 93 AUDIO
    TITLE "2020-07-29T21:22:41.846Z TO:7 Polk County - Westcom Law Enforcement 4 FROM:1394"
    INDEX 01 06:30:46
  TRACK 94 AUDIO
    TITLE "2020-07-29T21:22:46.038Z TO:7 Polk County - Westcom Law Enforcement 4 FROM:1377"
    INDEX 01 06:34:60
  TRACK 95 AUDIO
    TITLE "2020-07-29T21:22:48.822Z TO:49172 Polk County - Des Moines Streets FROM:12770261"
    INDEX 01 06:37:44
  TRACK 96 AUDIO
    TITLE "2020-07-29T21:23:04.246Z TO:1101 Polk County - Westcom Law Enforcement 1 FROM:5095"
    INDEX 01 06:53:02
  TRACK 97 AUDIO
    TITLE "2020-07-29T21:23:07.734Z TO:1101 Polk County - Westcom Law Enforcement 1 FROM:UNKNOWN"
    INDEX 01 06:56:38
  TRACK 98 AUDIO
    TITLE "2020-07-29T21:23:08.438Z TO:49172 Polk County - Des Moines Streets FROM:12770352"
    INDEX 01 06:57:16
  TRACK 99 AUDIO
    TITLE "2020-07-29T21:23:11.222Z TO:49172 Polk County - Des Moines Streets FROM:12770261"
    INDEX 01 07:00:00
  TRACK 100 AUDIO
    TITLE "2020-07-29T21:23:16.822Z TO:1101 Polk County - Westcom Law Enforcement 1 FROM:5173"
    INDEX 01 07:05:44
  TRACK 101 AUDIO
    TITLE "2020-07-29T21:23:20.342Z TO:1101 Polk County - Westcom Law Enforcement 1 FROM:UNKNOWN"
    INDEX 01 07:09:09
  TRACK 102 AUDIO
    TITLE "2020-07-29T21:23:21.750Z TO:1101 Polk County - Westcom Law Enforcement 1 FROM:1004"
    INDEX 01 07:10:39
  TRACK 103 AUDIO
    TITLE "2020-07-29T21:23:23.830Z TO:49172 Polk County - Des Moines Streets FROM:12770352"
    INDEX 01 07:12:45
  TRACK 104 AUDIO
    TITLE "2020-07-29T21:23:28.726Z TO:49172 Polk County - Des Moines Streets FROM:12770261"
    INDEX 01 07:17:37
  TRACK 105 AUDIO
    TITLE "2020-07-29T21:23:30.134Z TO:1101 Polk County - Westcom Law Enforcement 1 FROM:1004"
    INDEX 01 07:18:67
  TRACK 106 AUDIO
    TITLE "2020-07-29T21:23:32.950Z TO:1101 Polk County - Westcom Law Enforcement 1 FROM:7609"
    INDEX 01 07:21:54
  TRACK 107 AUDIO
    TITLE "2020-07-29T21:23:36.438Z TO:1101 Polk County - Westcom Law Enforcement 1 FROM:UNKNOWN"
    INDEX 01 07:25:16
  TRACK 108 AUDIO
    TITLE "2020-07-29T21:23:37.142Z TO:1101 Polk County - Westcom Law Enforcement 1 FROM:1004"
    INDEX 01 07:25:68
  TRACK 109 AUDIO
    TITLE "2020-07-29T21:23:40.630Z TO:1101 Polk County - Westcom Law Enforcement 1 FROM:1441"
    INDEX 01 07:29:30
  TRACK 110 AUDIO
    TITLE "2020-07-29T21:23:43.446Z TO:1101 Polk County - Westcom Law Enforcement 1 FROM:1004"
    INDEX 01 07:32:17
  TRACK 111 AUDIO
    TITLE "2020-07-29T21:23:46.230Z TO:5013 Department of Public Safety - Area A P16Call 13A - Capital Police FROM:10862"
    INDEX 01 07:35:01
  TRACK 112 AUDIO
    TITLE "2020-07-29T21:23:49.046Z TO:5013 Department of Public Safety - Area A P16Call 13A - Capital Police FROM:10993"
    INDEX 01 07:37:61
  TRACK 113 AUDIO
    TITLE "2020-07-29T21:23:51.126Z TO:18513 Boone County Incident 5E FROM:899995"
    INDEX 01 07:39:67
  TRACK 114 AUDIO
    TITLE "2020-07-29T21:23:52.534Z TO:5013 Department of Public Safety - Area A P16Call 13A - Capital Police FROM:10365"
    INDEX 01 07:41:23
  TRACK 115 AUDIO
    TITLE "2020-07-29T21:23:55.350Z TO:5013 Department of Public Safety - Area A P16Call 13A - Capital Police FROM:UNKNOWN"
    INDEX 01 07:44:09
  TRACK 116 AUDIO
    TITLE "2020-07-29T21:23:58.134Z TO:7300 Department of Transportation - District 1 Highway Helper - Des Moines Area FROM:14950"
    INDEX 01 07:46:67
  TRACK 117 AUDIO
    TITLE "2020-07-29T21:24:00.950Z TO:7300 Department of Transportation - District 1 Highway Helper - Des Moines Area FROM:14966"
    INDEX 01 07:49:54
  TRACK 118 AUDIO
    TITLE "2020-07-29T21:24:03.030Z TO:7300 Department of Transportation - District 1 Highway Helper - Des Moines Area FROM:14950"
    INDEX 01 07:51:60
  TRACK 119 AUDIO
    TITLE "2020-07-29T21:24:10.038Z TO:1102 Polk County - Westcom Law Enforcement 2 FROM:1487"
    INDEX 01 07:58:60
  TRACK 120 AUDIO
    TITLE "2020-07-29T21:24:13.526Z TO:1102 Polk County - Westcom Law Enforcement 2 FROM:1006"
    INDEX 01 08:02:22
  TRACK 121 AUDIO
    TITLE "2020-07-29T21:24:15.638Z TO:7300 Department of Transportation - District 1 Highway Helper - Des Moines Area FROM:14966"
    INDEX 01 08:04:31
  TRACK 122 AUDIO
    TITLE "2020-07-29T21:24:17.750Z TO:1102 Polk County - Westcom Law Enforcement 2 FROM:1487"
    INDEX 01 08:06:39
  TRACK 123 AUDIO
    TITLE "2020-07-29T21:24:24.022Z TO:1102 Polk County - Westcom Law Enforcement 2 FROM:1006"
    INDEX 01 08:12:59
  TRACK 124 AUDIO
    TITLE "2020-07-29T21:24:26.134Z TO:1102 Polk County - Westcom Law Enforcement 2 FROM:1487"
    INDEX 01 08:14:67
  TRACK 125 AUDIO
    TITLE "2020-07-29T21:24:27.542Z TO:177 Polk County - Westcom Fire 2 FROM:1932"
    INDEX 01 08:16:24
  TRACK 126 AUDIO
    TITLE "2020-07-29T21:24:31.734Z TO:24631 Dallas County Fire/EMS Operations FROM:2520002"
    INDEX 01 08:20:38
  TRACK 127 AUDIO
    TITLE "2020-07-29T21:24:34.550Z TO:24631 Dallas County Fire/EMS Operations FROM:2559981"
    INDEX 01 08:23:24
  TRACK 128 AUDIO
    TITLE "2020-07-29T21:24:37.334Z TO:24631 Dallas County Fire/EMS Operations FROM:2520002"
    INDEX 01 08:26:08
  TRACK 129 AUDIO
    TITLE "2020-07-29T21:24:42.934Z TO:24631 Dallas County Fire/EMS Operations FROM:2559981"
    INDEX 01 08:31:53
  TRACK 130 AUDIO
    TITLE "2020-07-29T21:24:45.046Z TO:59908 Warren County Law 1 FROM:UNKNOWN"
    INDEX 01 08:33:61
  TRACK 131 AUDIO
    TITLE "2020-07-29T21:24:47.830Z TO:59908 Warren County Law 1 FROM:9111291"
    INDEX 01 08:36:45
  TRACK 132 AUDIO
    TITLE "2020-07-29T21:24:49.942Z TO:59908 Warren County Law 1 FROM:9199991"
    INDEX 01 08:38:53
  TRACK 133 AUDIO
    TITLE "2020-07-29T21:24:52.022Z TO:59908 Warren County Law 1 FROM:9111301"
    INDEX 01 08:40:59
  TRACK 134 AUDIO
    TITLE "2020-07-29T21:24:53.430Z TO:59908 Warren County Law 1 FROM:UNKNOWN"
    INDEX 01 08:42:15
  TRACK 135 AUDIO
    TITLE "2020-07-29T21:24:56.246Z TO:59908 Warren County Law 1 FROM:9119100"
    INDEX 01 08:45:02
  TRACK 136 AUDIO
    TITLE "2020-07-29T21:24:58.326Z TO:59908 Warren County Law 1 FROM:9199991"
    INDEX 01 08:47:08
  TRACK 137 AUDIO
    TITLE "2020-07-29T21:25:01.846Z TO:59908 Warren County Law 1 FROM:9119100"
    INDEX 01 08:50:46
  TRACK 138 AUDIO
    TITLE "2020-07-29T21:25:03.926Z TO:59908 Warren County Law 1 FROM:9199991"
    INDEX 01 08:52:52
  TRACK 139 AUDIO
    TITLE "2020-07-29T21:25:07.446Z TO:59908 Warren County Law 1 FROM:9110110"
    INDEX 01 08:56:17
  TRACK 140 AUDIO
    TITLE "2020-07-29T21:25:09.526Z TO:59908 Warren County Law 1 FROM:9199991"
    INDEX 01 08:58:22
  TRACK 141 AUDIO
    TITLE "2020-07-29T21:25:11.638Z TO:59908 Warren County Law 1 FROM:9110251"
    INDEX 01 09:00:31
  TRACK 142 AUDIO
    TITLE "2020-07-29T21:25:12.342Z TO:59908 Warren County Law 1 FROM:9199991"
    INDEX 01 09:01:09
  TRACK 143 AUDIO
    TITLE "2020-07-29T21:25:15.126Z TO:7300 Department of Transportation - District 1 Highway Helper - Des Moines Area FROM:14950"
    INDEX 01 09:03:67
  TRACK 144 AUDIO
    TITLE "2020-07-29T21:25:17.238Z TO:7300 Department of Transportation - District 1 Highway Helper - Des Moines Area FROM:UNKNOWN"
    INDEX 01 09:06:01
  TRACK 145 AUDIO
    TITLE "2020-07-29T21:25:19.350Z TO:7300 Department of Transportation - District 1 Highway Helper - Des Moines Area FROM:14966"
    INDEX 01 09:08:09
  TRACK 146 AUDIO
    TITLE "2020-07-29T21:25:20.726Z TO:7300 Department of Transportation - District 1 Highway Helper - Des Moines Area FROM:14950"
    INDEX 01 09:09:37
  TRACK 147 AUDIO
    TITLE "2020-07-29T21:25:35.446Z TO:7300 Department of Transportation - District 1 Highway Helper - Des Moines Area FROM:14966"
    INDEX 01 09:24:17
  TRACK 148 AUDIO
    TITLE "2020-07-29T21:25:37.526Z TO:475 Polk County - Urbandale Fire 1 FROM:1005"
    INDEX 01 09:26:22
  TRACK 149 AUDIO
    TITLE "2020-07-29T21:25:43.830Z TO:175 Polk County - Westcom Fire 1 FROM:1005"
    INDEX 01 09:32:45
  TRACK 150 AUDIO
    TITLE "2020-07-29T21:25:54.326Z TO:177 Polk County - Westcom Fire 2 FROM:1005"
    INDEX 01 09:43:08
  TRACK 151 AUDIO
    TITLE "2020-07-29T21:26:04.150Z TO:475 Polk County - Urbandale Fire 1 FROM:1005"
    INDEX 01 09:52:69
  TRACK 152 AUDIO
    TITLE "2020-07-29T21:26:10.422Z TO:175 Polk County - Westcom Fire 1 FROM:1005"
    INDEX 01 09:59:15
  TRACK 153 AUDIO
    TITLE "2020-07-29T21:26:16.726Z TO:475 Polk County - Urbandale Fire 1 FROM:1005"
    INDEX 01 10:05:37
  TRACK 154 AUDIO
    TITLE "2020-07-29T21:26:26.550Z TO:175 Polk County - Westcom Fire 1 FROM:1005"
    INDEX 01 10:15:24
  TRACK 155 AUDIO
    TITLE "2020-07-29T21:26:32.822Z TO:175 Polk County - Westcom Fire 1 FROM:1005"
    INDEX 01 10:21:44
  TRACK 156 AUDIO
    TITLE "2020-07-29T21:26:43.350Z TO:1101 Polk County - Westcom Law Enforcement 1 FROM:1004"
    INDEX 01 10:32:09
  TRACK 157 AUDIO
    TITLE "2020-07-29T21:26:47.542Z TO:7300 Department of Transportation - District 1 Highway Helper - Des Moines Area FROM:14948"
    INDEX 01 10:36:24
  TRACK 158 AUDIO
    TITLE "2020-07-29T21:26:50.326Z TO:1101 Polk County - Westcom Law Enforcement 1 FROM:5082"
    INDEX 01 10:39:08
  TRACK 159 AUDIO
    TITLE "2020-07-29T21:26:52.438Z TO:1101 Polk County - Westcom Law Enforcement 1 FROM:UNKNOWN"
    INDEX 01 10:41:16
  TRACK 160 AUDIO
    TITLE "2020-07-29T21:26:53.846Z TO:1101 Polk County - Westcom Law Enforcement 1 FROM:1004"
    INDEX 01 10:42:46
  TRACK 161 AUDIO
    TITLE "2020-07-29T21:27:01.526Z TO:475 Polk County - Urbandale Fire 1 FROM:1005"
    INDEX 01 10:50:22
  TRACK 162 AUDIO
    TITLE "2020-07-29T21:27:21.846Z TO:177 Polk County - Westcom Fire 2 FROM:1005"
    INDEX 01 11:10:46
  TRACK 163 AUDIO
    TITLE "2020-07-29T21:27:42.134Z TO:175 Polk County - Westcom Fire 1 FROM:1005"
    INDEX 01 11:30:67
  TRACK 164 AUDIO
    TITLE "2020-07-29T21:28:02.422Z TO:7300 Department of Transportation - District 1 Highway Helper - Des Moines Area FROM:14966"
    INDEX 01 11:51:15
  TRACK 165 AUDIO
    TITLE "2020-07-29T21:28:03.126Z TO:177 Polk County - Westcom Fire 2 FROM:UNKNOWN"
    INDEX 01 11:51:67
  TRACK 166 AUDIO
    TITLE "2020-07-29T21:28:04.534Z TO:1101 Polk County - Westcom Law Enforcement 1 FROM:5082"
    INDEX 01 11:53:23
  TRACK 167 AUDIO
    TITLE "2020-07-29T21:28:06.646Z TO:177 Polk County - Westcom Fire 2 FROM:103"
    INDEX 01 11:55:31
  TRACK 168 AUDIO
    TITLE "2020-07-29T21:28:10.134Z TO:1101 Polk County - Westcom Law Enforcement 1 FROM:5101"
    INDEX 01 11:58:67
  TRACK 169 AUDIO
    TITLE "2020-07-29T21:28:14.326Z TO:177 Polk County - Westcom Fire 2 FROM:1932"
    INDEX 01 12:03:08
  TRACK 170 AUDIO
    TITLE "2020-07-29T21:28:17.142Z TO:177 Polk County - Westcom Fire 2 FROM:103"
    INDEX 01 12:05:68
  TRACK 171 AUDIO
    TITLE "2020-07-29T21:28:19.222Z TO:7300 Department of Transportation - District 1 Highway Helper - Des Moines Area FROM:14948"
    INDEX 01 12:08:00
  TRACK 172 AUDIO
    TITLE "2020-07-29T21:28:32.534Z TO:1101 Polk County - Westcom Law Enforcement 1 FROM:5095"
    INDEX 01 12:21:23
  TRACK 173 AUDIO
    TITLE "2020-07-29T21:28:36.022Z TO:1101 Polk County - Westcom Law Enforcement 1 FROM:1004"
    INDEX 01 12:24:59
  TRACK 174 AUDIO
    TITLE "2020-07-29T21:28:36.726Z TO:177 Polk County - Westcom Fire 2 FROM:4371"
    INDEX 01 12:25:37
  TRACK 175 AUDIO
    TITLE "2020-07-29T21:28:38.838Z TO:177 Polk County - Westcom Fire 2 FROM:UNKNOWN"
    INDEX 01 12:27:46
  TRACK 176 AUDIO
    TITLE "2020-07-29T21:28:40.246Z TO:7300 Department of Transportation - District 1 Highway Helper - Des Moines Area FROM:14948"
    INDEX 01 12:29:02
  TRACK 177 AUDIO
    TITLE "2020-07-29T21:28:42.326Z TO:7300 Department of Transportation - District 1 Highway Helper - Des Moines Area FROM:14966"
    INDEX 01 12:31:08
  TRACK 178 AUDIO
    TITLE "2020-07-29T21:28:46.550Z TO:1101 Polk County - Westcom Law Enforcement 1 FROM:1487"
    INDEX 01 12:35:24
  TRACK 179 AUDIO
    TITLE "2020-07-29T21:28:50.038Z TO:1101 Polk County - Westcom Law Enforcement 1 FROM:1004"
    INDEX 01 12:38:60
  TRACK 180 AUDIO
    TITLE "2020-07-29T21:28:52.150Z TO:7300 Department of Transportation - District 1 Highway Helper - Des Moines Area FROM:14948"
    INDEX 01 12:40:69
  TRACK 181 AUDIO
    TITLE "2020-07-29T21:28:59.126Z TO:177 Polk County - Westcom Fire 2 FROM:103"
    INDEX 01 12:47:67
  TRACK 182 AUDIO
    TITLE "2020-07-29T21:29:13.142Z TO:177 Polk County - Westcom Fire 2 FROM:4369"
    INDEX 01 13:01:68
  TRACK 183 AUDIO
    TITLE "2020-07-29T21:29:17.334Z TO:177 Polk County - Westcom Fire 2 FROM:103"
    INDEX 01 13:06:08
  TRACK 184 AUDIO
    TITLE "2020-07-29T21:29:21.526Z TO:177 Polk County - Westcom Fire 2 FROM:UNKNOWN"
    INDEX 01 13:10:22
  TRACK 185 AUDIO
    TITLE "2020-07-29T21:29:22.934Z TO:177 Polk County - Westcom Fire 2 FROM:103"
    INDEX 01 13:11:53
  TRACK 186 AUDIO
    TITLE "2020-07-29T21:29:25.046Z TO:1102 Polk County - Westcom Law Enforcement 2 FROM:1441"
    INDEX 01 13:13:61
  TRACK 187 AUDIO
    TITLE "2020-07-29T21:29:27.830Z TO:1102 Polk County - Westcom Law Enforcement 2 FROM:1006"
    INDEX 01 13:16:45
  TRACK 188 AUDIO
    TITLE "2020-07-29T21:29:29.238Z TO:1102 Polk County - Westcom Law Enforcement 2 FROM:1441"
    INDEX 01 13:18:01
  TRACK 189 AUDIO
    TITLE "2020-07-29T21:29:34.134Z TO:1102 Polk County - Westcom Law Enforcement 2 FROM:UNKNOWN"
    INDEX 01 13:22:67
  TRACK 190 AUDIO
    TITLE "2020-07-29T21:29:35.542Z Scanning ...."
    INDEX 01 13:24:24
  TRACK 191 AUDIO
    TITLE "2020-07-29T21:29:40.438Z TO:177 Polk County - Westcom Fire 2 FROM:4371"
    INDEX 01 13:29:16
  TRACK 192 AUDIO
    TITLE "2020-07-29T21:29:46.038Z TO:177 Polk County - Westcom Fire 2 FROM:103"
    INDEX 01 13:34:60
  TRACK 193 AUDIO
    TITLE "2020-07-29T21:29:48.150Z Scanning ...."
    INDEX 01 13:36:69
  TRACK 194 AUDIO
    TITLE "2020-07-29T21:30:49.750Z TO:18513 Boone County Incident 5E FROM:800531"
    INDEX 01 14:38:39
  TRACK 195 AUDIO
    TITLE "2020-07-29T21:30:51.126Z Scanning ...."
    INDEX 01 14:39:67
  TRACK 196 AUDIO
    TITLE "2020-07-29T21:31:54.134Z TO:7300 Department of Transportation - District 1 Highway Helper - Des Moines Area FROM:14948"
    INDEX 01 15:42:67
  TRACK 197 AUDIO
    TITLE "2020-07-29T21:31:56.246Z Scanning ...."
    INDEX 01 15:45:02
  TRACK 198 AUDIO
    TITLE "2020-07-29T21:32:02.550Z TO:7300 Department of Transportation - District 1 Highway Helper - Des Moines Area FROM:14966"
    INDEX 01 15:51:24
  TRACK 199 AUDIO
    TITLE "2020-07-29T21:32:05.334Z Scanning ...."
    INDEX 01 15:54:08
  TRACK 200 AUDIO
    TITLE "2020-07-29T21:32:33.334Z TO:7300 Department of Transportation - District 1 Highway Helper - Des Moines Area FROM:14948"
    INDEX 01 16:22:08
  TRACK 201 AUDIO
    TITLE "2020-07-29T21:32:56.438Z TO:7300 Department of Transportation - District 1 Highway Helper - Des Moines Area FROM:14966"
    INDEX 01 16:45:16
  TRACK 202 AUDIO
    TITLE "2020-07-29T21:33:04.150Z TO:7300 Department of Transportation - District 1 Highway Helper - Des Moines Area FROM:14948"
    INDEX 01 16:52:69
  TRACK 203 AUDIO
    TITLE "2020-07-29T21:33:10.422Z TO:7300 Department of Transportation - District 1 Highway Helper - Des Moines Area FROM:14948"
    INDEX 01 16:59:15
  TRACK 204 AUDIO
    TITLE "2020-07-29T21:33:17.430Z TO:175 Polk County - Westcom Fire 1 FROM:1009"
    INDEX 01 17:06:15
  TRACK 205 AUDIO
    TITLE "2020-07-29T21:33:23.734Z TO:41 Polk County - West Des Moines Fire Paging FROM:1009"
    INDEX 01 17:12:38
  TRACK 206 AUDIO
    TITLE "2020-07-29T21:33:29.334Z TO:18513 Boone County Incident 5E FROM:800554"
    INDEX 01 17:18:08
  TRACK 207 AUDIO
    TITLE "2020-07-29T21:33:30.742Z TO:7300 Department of Transportation - District 1 Highway Helper - Des Moines Area FROM:14966"
    INDEX 01 17:19:38
  TRACK 208 AUDIO
    TITLE "2020-07-29T21:33:37.750Z TO:41 Polk County - West Des Moines Fire Paging FROM:1009"
    INDEX 01 17:26:39
  TRACK 209 AUDIO
    TITLE "2020-07-29T21:33:44.022Z TO:175 Polk County - Westcom Fire 1 FROM:1009"
    INDEX 01 17:32:59
  TRACK 210 AUDIO
    TITLE "2020-07-29T21:33:50.326Z TO:7300 Department of Transportation - District 1 Highway Helper - Des Moines Area FROM:14948"
    INDEX 01 17:39:08
  TRACK 211 AUDIO
    TITLE "2020-07-29T21:33:52.438Z TO:1101 Polk County - Westcom Law Enforcement 1 FROM:1004"
    INDEX 01 17:41:16
  TRACK 212 AUDIO
    TITLE "2020-07-29T21:33:55.926Z TO:1101 Polk County - Westcom Law Enforcement 1 FROM:1381"
    INDEX 01 17:44:52
  TRACK 213 AUDIO
    TITLE "2020-07-29T21:33:58.038Z TO:1101 Polk County - Westcom Law Enforcement 1 FROM:1004"
    INDEX 01 17:46:60
  TRACK 214 AUDIO
    TITLE "2020-07-29T21:34:00.150Z TO:1101 Polk County - Westcom Law Enforcement 1 FROM:7609"
    INDEX 01 17:48:69
  TRACK 215 AUDIO
    TITLE "2020-07-29T21:34:02.934Z TO:5013 Department of Public Safety - Area A P16Call 13A - Capital Police FROM:10365"
    INDEX 01 17:51:53
  TRACK 216 AUDIO
    TITLE "2020-07-29T21:34:07.126Z TO:1101 Polk County - Westcom Law Enforcement 1 FROM:UNKNOWN"
    INDEX 01 17:55:67
  TRACK 217 AUDIO
    TITLE "2020-07-29T21:34:09.238Z TO:5013 Department of Public Safety - Area A P16Call 13A - Capital Police FROM:10993"
    INDEX 01 17:58:01
  TRACK 218 AUDIO
    TITLE "2020-07-29T21:34:11.350Z TO:5013 Department of Public Safety - Area A P16Call 13A - Capital Police FROM:10365"
    INDEX 01 18:00:09
  TRACK 219 AUDIO
    TITLE "2020-07-29T21:34:15.542Z TO:1101 Polk County - Westcom Law Enforcement 1 FROM:7609"
    INDEX 01 18:04:24
  TRACK 220 AUDIO
    TITLE "2020-07-29T21:34:26.038Z TO:1101 Polk County - Westcom Law Enforcement 1 FROM:UNKNOWN"
    INDEX 01 18:14:60
  TRACK 221 AUDIO
    TITLE "2020-07-29T21:34:27.446Z TO:41 Polk County - West Des Moines Fire Paging FROM:1009"
    INDEX 01 18:16:17
  TRACK 222 AUDIO
    TITLE "2020-07-29T21:34:59.638Z TO:175 Polk County - Westcom Fire 1 FROM:1009"
    INDEX 01 18:48:31
  TRACK 223 AUDIO
    TITLE "2020-07-29T21:35:30.422Z TO:59908 Warren County Law 1 FROM:9110170"
    INDEX 01 19:19:15
  TRACK 224 AUDIO
    TITLE "2020-07-29T21:35:32.534Z TO:59908 Warren County Law 1 FROM:9199991"
    INDEX 01 19:21:23
  TRACK 225 AUDIO
    TITLE "2020-07-29T21:35:33.942Z TO:59908 Warren County Law 1 FROM:UNKNOWN"
    INDEX 01 19:22:53
  TRACK 226 AUDIO
    TITLE "2020-07-29T21:35:38.134Z TO:59908 Warren County Law 1 FROM:UNKNOWN"
    INDEX 01 19:26:67
  TRACK 227 AUDIO
    TITLE "2020-07-29T21:35:40.246Z TO:7300 Department of Transportation - District 1 Highway Helper - Des Moines Area FROM:14931"
    INDEX 01 19:29:02
  TRACK 228 AUDIO
    TITLE "2020-07-29T21:35:43.030Z TO:7300 Department of Transportation - District 1 Highway Helper - Des Moines Area FROM:14966"
    INDEX 01 19:31:60
  TRACK 229 AUDIO
    TITLE "2020-07-29T21:35:46.550Z TO:7300 Department of Transportation - District 1 Highway Helper - Des Moines Area FROM:14950"
    INDEX 01 19:35:24
  TRACK 230 AUDIO
    TITLE "2020-07-29T21:35:50.742Z TO:5013 Department of Public Safety - Area A P16Call 13A - Capital Police FROM:10862"
    INDEX 01 19:39:38
  TRACK 231 AUDIO
    TITLE "2020-07-29T21:35:54.230Z TO:7300 Department of Transportation - District 1 Highway Helper - Des Moines Area FROM:14966"
    INDEX 01 19:43:01
  TRACK 232 AUDIO
    TITLE "2020-07-29T21:35:56.342Z TO:1101 Polk County - Westcom Law Enforcement 1 FROM:5095"
    INDEX 01 19:45:09
  TRACK 233 AUDIO
    TITLE "2020-07-29T21:35:58.422Z TO:5013 Department of Public Safety - Area A P16Call 13A - Capital Police FROM:UNKNOWN"
    INDEX 01 19:47:15
  TRACK 234 AUDIO
    TITLE "2020-07-29T21:36:00.534Z TO:1101 Polk County - Westcom Law Enforcement 1 FROM:1004"
    INDEX 01 19:49:23
  TRACK 235 AUDIO
    TITLE "2020-07-29T21:36:02.646Z TO:7300 Department of Transportation - District 1 Highway Helper - Des Moines Area FROM:14948"
    INDEX 01 19:51:31
  TRACK 236 AUDIO
    TITLE "2020-07-29T21:36:08.950Z TO:1101 Polk County - Westcom Law Enforcement 1 FROM:5173"
    INDEX 01 19:57:54
  TRACK 237 AUDIO
    TITLE "2020-07-29T21:36:11.734Z TO:1101 Polk County - Westcom Law Enforcement 1 FROM:UNKNOWN"
    INDEX 01 20:00:38
  TRACK 238 AUDIO
    TITLE "2020-07-29T21:36:13.142Z TO:7300 Department of Transportation - District 1 Highway Helper - Des Moines Area FROM:14966"
    INDEX 01 20:01:68
  TRACK 239 AUDIO
    TITLE "2020-07-29T21:36:17.334Z TO:59908 Warren County Law 1 FROM:9110151"
    INDEX 01 20:06:08
  TRACK 240 AUDIO
    TITLE "2020-07-29T21:36:20.822Z TO:18513 Boone County Incident 5E FROM:800554"
    INDEX 01 20:09:44
  TRACK 241 AUDIO
    TITLE "2020-07-29T21:36:22.230Z TO:18513 Boone County Incident 5E FROM:800554"
    INDEX 01 20:11:01
  TRACK 242 AUDIO
    TITLE "2020-07-29T21:36:24.342Z TO:59908 Warren County Law 1 FROM:UNKNOWN"
    INDEX 01 20:13:09
  TRACK 243 AUDIO
    TITLE "2020-07-29T21:36:27.126Z TO:59908 Warren County Law 1 FROM:9110110"
    INDEX 01 20:15:67
  TRACK 244 AUDIO
    TITLE "2020-07-29T21:36:29.238Z TO:59908 Warren County Law 1 FROM:9199990"
    INDEX 01 20:18:01
  TRACK 245 AUDIO
    TITLE "2020-07-29T21:36:30.646Z TO:48696 Polk County - UnityPoint Health Security FROM:10779039"
    INDEX 01 20:19:31
  TRACK 246 AUDIO
    TITLE "2020-07-29T21:36:34.134Z TO:59908 Warren County Law 1 FROM:9199990"
    INDEX 01 20:22:67
  TRACK 247 AUDIO
    TITLE "2020-07-29T21:36:36.246Z TO:48696 Polk County - UnityPoint Health Security FROM:120"
    INDEX 01 20:25:02
  TRACK 248 AUDIO
    TITLE "2020-07-29T21:36:38.326Z TO:1101 Polk County - Westcom Law Enforcement 1 FROM:1381"
    INDEX 01 20:27:08
  TRACK 249 AUDIO
    TITLE "2020-07-29T21:36:41.142Z TO:59908 Warren County Law 1 FROM:9110210"
    INDEX 01 20:29:68
  TRACK 250 AUDIO
    TITLE "2020-07-29T21:36:45.334Z TO:48696 Polk County - UnityPoint Health Security FROM:10779039"
    INDEX 01 20:34:08
  TRACK 251 AUDIO
    TITLE "2020-07-29T21:36:48.822Z TO:1101 Polk County - Westcom Law Enforcement 1 FROM:1004"
    INDEX 01 20:37:44
  TRACK 252 AUDIO
    TITLE "2020-07-29T21:36:50.934Z TO:59908 Warren County Law 1 FROM:9199990"
    INDEX 01 20:39:53
  TRACK 253 AUDIO
    TITLE "2020-07-29T21:36:52.342Z TO:59908 Warren County Law 1 FROM:9110210"
    INDEX 01 20:41:09
  TRACK 254 AUDIO
    TITLE "2020-07-29T21:36:56.534Z TO:48696 Polk County - UnityPoint Health Security FROM:UNKNOWN"
    INDEX 01 20:45:23
  TRACK 255 AUDIO
    TITLE "2020-07-29T21:36:58.646Z TO:59908 Warren County Law 1 FROM:9199990"
    INDEX 01 20:47:31
  TRACK 256 AUDIO
    TITLE "2020-07-29T21:36:59.350Z TO:1102 Polk County - Westcom Law Enforcement 2 FROM:1006"
    INDEX 01 20:48:09
  TRACK 257 AUDIO
    TITLE "2020-07-29T21:37:01.430Z TO:24631 Dallas County Fire/EMS Operations FROM:2520002"
    INDEX 01 20:50:15
  TRACK 258 AUDIO
    TITLE "2020-07-29T21:37:04.950Z TO:24631 Dallas County Fire/EMS Operations FROM:2520002"
    INDEX 01 20:53:54
  TRACK 259 AUDIO
    TITLE "2020-07-29T21:37:08.438Z TO:1102 Polk County - Westcom Law Enforcement 2 FROM:1362"
    INDEX 01 20:57:16